<svg xmlns="http://www.w3.org/2000/svg" width="980" height="420" viewBox="0 0 980 420">
<rect width="100%" height="100%" fill="white"/>
<text x="70" y="24" font-size="18" font-family="Arial">同一中位误差session模型对比: PA12_Reverse_Optical_Flow_Foward_Texture_7_06_02_PM</text>
<line x1="70" y1="40" x2="70" y2="350" stroke="#333"/>
<line x1="70" y1="350" x2="950" y2="350" stroke="#333"/>
<line x1="70" y1="350.0" x2="950" y2="350.0" stroke="#ddd"/>
<text x="28" y="354.0" font-size="11" font-family="Arial">0</text>
<line x1="70" y1="272.5" x2="950" y2="272.5" stroke="#ddd"/>
<text x="28" y="276.5" font-size="11" font-family="Arial">5</text>
<line x1="70" y1="195.0" x2="950" y2="195.0" stroke="#ddd"/>
<text x="28" y="199.0" font-size="11" font-family="Arial">10</text>
<line x1="70" y1="117.5" x2="950" y2="117.5" stroke="#ddd"/>
<text x="28" y="121.5" font-size="11" font-family="Arial">15</text>
<line x1="70" y1="40.0" x2="950" y2="40.0" stroke="#ddd"/>
<text x="28" y="44.0" font-size="11" font-family="Arial">20</text>
<line x1="157.9" y1="40" x2="157.9" y2="350" stroke="#ff9900" stroke-width="1" opacity="0.45"/>
<line x1="159.9" y1="40" x2="159.9" y2="350" stroke="#ff9900" stroke-width="1" opacity="0.45"/>
<line x1="161.8" y1="40" x2="161.8" y2="350" stroke="#ff9900" stroke-width="1" opacity="0.45"/>
<line x1="163.8" y1="40" x2="163.8" y2="350" stroke="#ff9900" stroke-width="1" opacity="0.45"/>
<line x1="193.2" y1="40" x2="193.2" y2="350" stroke="#ff9900" stroke-width="1" opacity="0.45"/>
<line x1="222.5" y1="40" x2="222.5" y2="350" stroke="#ff9900" stroke-width="1" opacity="0.45"/>
<line x1="224.5" y1="40" x2="224.5" y2="350" stroke="#ff9900" stroke-width="1" opacity="0.45"/>
<line x1="226.5" y1="40" x2="226.5" y2="350" stroke="#ff9900" stroke-width="1" opacity="0.45"/>
<line x1="259.7" y1="40" x2="259.7" y2="350" stroke="#ff9900" stroke-width="1" opacity="0.45"/>
<line x1="261.7" y1="40" x2="261.7" y2="350" stroke="#ff9900" stroke-width="1" opacity="0.45"/>
<line x1="267.5" y1="40" x2="267.5" y2="350" stroke="#ff9900" stroke-width="1" opacity="0.45"/>
<line x1="425.9" y1="40" x2="425.9" y2="350" stroke="#ff9900" stroke-width="1" opacity="0.45"/>
<line x1="484.6" y1="40" x2="484.6" y2="350" stroke="#ff9900" stroke-width="1" opacity="0.45"/>
<line x1="488.5" y1="40" x2="488.5" y2="350" stroke="#ff9900" stroke-width="1" opacity="0.45"/>
<line x1="490.5" y1="40" x2="490.5" y2="350" stroke="#ff9900" stroke-width="1" opacity="0.45"/>
<line x1="502.2" y1="40" x2="502.2" y2="350" stroke="#ff9900" stroke-width="1" opacity="0.45"/>
<line x1="631.1" y1="40" x2="631.1" y2="350" stroke="#ff9900" stroke-width="1" opacity="0.45"/>
<line x1="633.0" y1="40" x2="633.0" y2="350" stroke="#ff9900" stroke-width="1" opacity="0.45"/>
<line x1="644.7" y1="40" x2="644.7" y2="350" stroke="#ff9900" stroke-width="1" opacity="0.45"/>
<line x1="816.8" y1="40" x2="816.8" y2="350" stroke="#ff9900" stroke-width="1" opacity="0.45"/>
<line x1="818.7" y1="40" x2="818.7" y2="350" stroke="#ff9900" stroke-width="1" opacity="0.45"/>
<polyline points="70.0,350.0 72.0,350.0 73.9,350.0 75.8,350.0 77.8,350.0 79.7,350.0 81.7,350.0 83.7,350.0 85.6,350.0 87.6,350.0 89.5,350.0 91.5,350.0 93.4,350.0 95.4,350.0 97.3,350.0 99.3,350.0 101.2,350.0 103.2,350.0 105.2,350.0 107.1,350.0 109.1,350.0 111.0,350.0 113.0,350.0 115.0,350.0 116.9,350.0 118.8,350.0 120.8,350.0 122.7,350.0 124.7,350.0 126.6,350.0 128.6,350.0 130.5,350.0 132.5,350.0 134.5,350.0 136.4,350.0 138.4,350.0 140.3,350.0 142.3,350.0 144.2,350.0 146.2,350.0 148.1,350.0 150.1,350.0 152.1,350.0 154.0,350.0 156.0,350.0 157.9,334.5 159.9,288.0 161.8,272.5 163.8,257.0 165.8,257.0 167.7,257.0 169.7,257.0 171.6,257.0 173.6,257.0 175.5,257.0 177.5,257.0 179.4,257.0 181.4,257.0 183.3,257.0 185.3,257.0 187.3,257.0 189.2,257.0 191.2,257.0 193.2,241.5 195.1,241.5 197.0,241.5 199.0,241.5 201.0,241.5 202.9,241.5 204.9,241.5 206.9,241.5 208.8,241.5 210.8,241.5 212.7,241.5 214.7,241.5 216.7,241.5 218.6,241.5 220.6,241.5 222.5,272.5 224.5,319.0 226.5,334.5 228.4,334.5 230.4,334.5 232.3,334.5 234.3,334.5 236.2,334.5 238.2,334.5 240.1,334.5 242.1,334.5 244.0,334.5 245.9,334.5 247.9,334.5 249.9,334.5 251.9,334.5 253.8,334.5 255.8,334.5 257.8,334.5 259.7,319.0 261.7,303.5 263.6,303.5 265.6,303.5 267.5,288.0 269.5,288.0 271.4,288.0 273.4,288.0 275.4,288.0 277.3,288.0 279.2,288.0 281.1,288.0 283.1,288.0 285.0,288.0 287.0,288.0 289.0,288.0 291.0,288.0 292.9,288.0 294.8,288.0 296.8,288.0 298.8,288.0 300.7,288.0 302.7,288.0 304.6,288.0 306.6,288.0 308.5,288.0 310.5,288.0 312.5,288.0 314.4,288.0 316.4,288.0 318.3,288.0 320.3,288.0 322.2,288.0 324.2,288.0 326.1,288.0 328.1,288.0 330.0,288.0 332.0,288.0 333.9,288.0 335.9,288.0 337.8,288.0 339.8,288.0 341.8,288.0 343.7,288.0 345.7,288.0 347.6,288.0 349.5,288.0 351.5,288.0 353.5,288.0 355.4,288.0 357.4,288.0 359.4,288.0 361.3,288.0 363.2,288.0 365.2,288.0 367.1,288.0 369.1,288.0 371.1,288.0 373.0,288.0 375.0,288.0 376.9,288.0 378.8,288.0 380.7,288.0 382.7,288.0 384.7,288.0 386.7,288.0 388.7,288.0 390.6,288.0 392.6,288.0 394.6,288.0 396.5,288.0 398.5,288.0 400.4,288.0 402.4,288.0 404.3,288.0 406.4,288.0 408.3,288.0 410.3,288.0 412.2,288.0 414.2,288.0 416.1,288.0 418.1,288.0 420.0,288.0 422.0,288.0 424.0,288.0 425.9,272.5 427.9,272.5 429.9,272.5 431.8,272.5 433.8,272.5 435.8,272.5 437.7,272.5 439.7,272.5 441.6,272.5 443.5,272.5 445.5,272.5 447.4,272.5 449.4,272.5 451.3,272.5 453.3,272.5 455.2,272.5 457.2,272.5 459.1,272.5 461.1,272.5 463.1,272.5 465.0,272.5 467.0,272.5 469.0,272.5 470.9,272.5 472.9,272.5 474.8,272.5 476.7,272.5 478.7,272.5 480.7,272.5 482.6,272.5 484.6,241.5 486.6,241.5 488.5,195.0 490.5,179.5 492.4,179.5 494.4,179.5 496.4,179.5 498.3,179.5 500.3,179.5 502.2,195.0 504.1,195.0 506.1,195.0 508.1,195.0 510.0,195.0 511.9,195.0 513.9,195.0 515.8,195.0 517.8,195.0 519.7,195.0 521.7,195.0 523.6,195.0 525.6,195.0 527.5,195.0 529.4,195.0 531.4,195.0 533.3,195.0 535.3,195.0 537.2,195.0 539.1,195.0 541.1,195.0 543.0,195.0 544.9,195.0 546.9,195.0 548.9,195.0 550.8,195.0 552.7,195.0 554.7,195.0 556.7,195.0 558.6,195.0 560.6,195.0 562.6,195.0 564.5,195.0 566.5,195.0 568.4,195.0 570.4,195.0 572.4,195.0 574.3,195.0 576.3,195.0 578.2,195.0 580.2,195.0 582.1,195.0 584.1,195.0 586.1,195.0 588.0,195.0 590.0,195.0 591.9,195.0 593.9,195.0 595.8,195.0 597.8,195.0 599.8,195.0 601.7,195.0 603.7,195.0 605.7,195.0 607.6,195.0 609.6,195.0 611.5,195.0 613.5,195.0 615.4,195.0 617.4,195.0 619.3,195.0 621.3,195.0 623.2,195.0 625.2,195.0 627.2,195.0 629.1,195.0 631.1,241.5 633.0,257.0 635.0,257.0 636.9,257.0 638.9,257.0 640.8,257.0 642.7,257.0 644.7,226.0 646.6,226.0 648.6,226.0 650.6,226.0 652.5,226.0 654.5,226.0 656.4,226.0 658.4,226.0 660.4,226.0 662.3,226.0 664.2,226.0 666.2,226.0 668.2,226.0 670.1,226.0 672.1,226.0 674.0,226.0 676.0,226.0 677.9,226.0 679.9,226.0 681.8,226.0 683.7,226.0 685.7,226.0 687.6,226.0 689.6,226.0 691.5,226.0 693.5,226.0 695.4,226.0 697.4,226.0 699.4,226.0 701.3,226.0 703.3,226.0 705.2,226.0 707.2,226.0 709.1,226.0 711.1,226.0 713.1,226.0 715.0,226.0 717.0,226.0 718.9,226.0 720.8,226.0 722.8,226.0 724.7,226.0 726.7,226.0 728.6,226.0 730.6,226.0 732.6,226.0 734.5,226.0 736.5,226.0 738.4,226.0 740.4,226.0 742.4,226.0 744.4,226.0 746.3,226.0 748.3,226.0 750.3,226.0 752.2,226.0 754.2,226.0 756.1,226.0 758.1,226.0 760.0,226.0 762.0,226.0 763.9,226.0 765.9,226.0 767.9,226.0 769.8,226.0 771.8,226.0 773.7,226.0 775.7,226.0 777.6,226.0 779.5,226.0 781.5,226.0 783.4,226.0 785.4,226.0 787.3,226.0 789.3,226.0 791.2,226.0 793.2,226.0 795.2,226.0 797.2,226.0 799.2,226.0 801.1,226.0 803.1,226.0 805.0,226.0 807.0,226.0 809.0,226.0 810.9,226.0 812.8,226.0 814.8,226.0 816.8,210.5 818.7,195.0 820.7,195.0 822.6,195.0 824.6,195.0 826.5,195.0 828.4,195.0 830.4,195.0 832.4,195.0 834.4,195.0 836.3,195.0 838.3,195.0 840.3,195.0 842.2,195.0 844.2,195.0 846.1,195.0 848.1,195.0 850.1,195.0 852.0,195.0 854.0,195.0 856.0,195.0 857.9,195.0 859.9,195.0 861.8,195.0 863.8,195.0 865.8,195.0 867.7,195.0 869.7,195.0 871.6,195.0 873.6,195.0 875.5,195.0 877.5,195.0 879.5,195.0 881.5,195.0 883.4,195.0 885.3,195.0 887.3,195.0 889.2,195.0 891.2,195.0 893.1,195.0 895.1,195.0 897.1,195.0 899.0,195.0 901.0,195.0 902.9,195.0 904.9,195.0 906.9,195.0 908.8,195.0 910.8,195.0 912.7,195.0 914.7,195.0 916.6,195.0 918.6,195.0 920.6,195.0 922.6,195.0 924.5,195.0 926.5,195.0 928.5,195.0 930.4,195.0 932.4,195.0 934.3,195.0 936.3,195.0 938.3,195.0 940.2,195.0 942.2,195.0 944.2,195.0 946.1,195.0 948.1,195.0 950.0,195.0" fill="none" stroke="#111111" stroke-width="2"/>
<polyline points="70.0,260.3 72.0,258.8 73.9,257.9 75.8,256.1 77.8,253.6 79.7,256.5 81.7,256.0 83.7,255.8 85.6,256.0 87.6,256.1 89.5,256.7 91.5,256.6 93.4,256.0 95.4,255.8 97.3,255.1 99.3,255.2 101.2,254.6 103.2,254.3 105.2,254.7 107.1,276.6 109.1,276.5 111.0,277.2 113.0,278.9 115.0,279.8 116.9,280.3 118.8,283.2 120.8,283.7 122.7,284.1 124.7,286.1 126.6,287.2 128.6,287.7 130.5,288.3 132.5,283.7 134.5,287.8 136.4,286.5 138.4,285.7 140.3,286.1 142.3,286.5 144.2,287.3 146.2,288.5 148.1,290.1 150.1,291.7 152.1,293.4 154.0,297.1 156.0,295.6 157.9,293.1 159.9,290.9 161.8,288.3 163.8,285.9 165.8,283.8 167.7,283.5 169.7,283.9 171.6,286.4 173.6,290.4 175.5,294.4 177.5,298.6 179.4,300.9 181.4,302.9 183.3,309.3 185.3,305.5 187.3,303.5 189.2,302.2 191.2,299.7 193.2,297.2 195.1,294.3 197.0,292.9 199.0,291.7 201.0,292.4 202.9,293.6 204.9,293.3 206.9,292.6 208.8,292.3 210.8,291.6 212.7,290.8 214.7,290.1 216.7,288.8 218.6,288.6 220.6,285.3 222.5,285.5 224.5,285.9 226.5,285.8 228.4,287.3 230.4,287.9 232.3,289.3 234.3,291.6 236.2,293.5 238.2,295.3 240.1,296.4 242.1,299.5 244.0,302.0 245.9,297.0 247.9,295.2 249.9,292.7 251.9,291.0 253.8,291.2 255.8,291.4 257.8,292.8 259.7,294.2 261.7,295.2 263.6,295.9 265.6,295.3 267.5,295.7 269.5,295.7 271.4,295.1 273.4,294.5 275.4,293.6 277.3,292.6 279.2,291.9 281.1,291.4 283.1,292.2 285.0,292.8 287.0,293.8 289.0,298.7 291.0,293.0 292.9,290.7 294.8,289.0 296.8,289.4 298.8,287.6 300.7,290.1 302.7,294.0 304.6,293.7 306.6,291.9 308.5,290.6 310.5,289.8 312.5,289.7 314.4,290.2 316.4,290.9 318.3,292.0 320.3,293.2 322.2,294.8 324.2,297.1 326.1,297.0 328.1,294.6 330.0,294.9 332.0,297.5 333.9,298.7 335.9,298.4 337.8,297.4 339.8,294.8 341.8,284.7 343.7,284.5 345.7,284.1 347.6,283.4 349.5,282.1 351.5,282.6 353.5,283.3 355.4,283.8 357.4,284.5 359.4,286.4 361.3,285.7 363.2,285.9 365.2,285.4 367.1,286.1 369.1,286.6 371.1,287.2 373.0,287.3 375.0,289.2 376.9,289.1 378.8,289.3 380.7,289.7 382.7,289.4 384.7,289.7 386.7,290.5 388.7,291.4 390.6,292.1 392.6,293.3 394.6,295.0 396.5,279.8 398.5,275.1 400.4,270.7 402.4,264.6 404.3,262.8 406.4,259.3 408.3,257.9 410.3,257.4 412.2,255.8 414.2,284.4 416.1,267.5 418.1,254.5 420.0,240.8 422.0,238.5 424.0,237.0 425.9,238.3 427.9,239.6 429.9,241.1 431.8,227.0 433.8,227.1 435.8,226.9 437.7,224.5 439.7,225.1 441.6,225.0 443.5,223.7 445.5,226.4 447.4,225.9 449.4,227.2 451.3,210.5 453.3,220.8 455.2,239.3 457.2,249.2 459.1,243.2 461.1,243.2 463.1,252.1 465.0,243.7 467.0,234.8 469.0,224.5 470.9,226.4 472.9,225.7 474.8,228.4 476.7,229.0 478.7,227.3 480.7,229.1 482.6,229.7 484.6,228.2 486.6,222.5 488.5,218.0 490.5,217.7 492.4,214.7 494.4,216.5 496.4,213.7 498.3,211.9 500.3,208.2 502.2,211.7 504.1,216.4 506.1,216.7 508.1,219.6 510.0,225.1 511.9,225.5 513.9,228.5 515.8,225.3 517.8,226.3 519.7,228.2 521.7,231.3 523.6,234.2 525.6,237.7 527.5,237.1 529.4,228.9 531.4,231.4 533.3,227.7 535.3,229.2 537.2,229.7 539.1,230.7 541.1,235.9 543.0,231.7 544.9,231.7 546.9,231.0 548.9,234.7 550.8,228.5 552.7,230.5 554.7,232.9 556.7,235.6 558.6,235.9 560.6,234.7 562.6,236.8 564.5,236.3 566.5,237.4 568.4,245.3 570.4,227.8 572.4,214.7 574.3,227.9 576.3,225.2 578.2,224.3 580.2,223.8 582.1,215.6 584.1,212.1 586.1,201.0 588.0,207.0 590.0,208.4 591.9,205.2 593.9,205.2 595.8,204.2 597.8,204.3 599.8,205.8 601.7,207.4 603.7,208.9 605.7,209.9 607.6,203.5 609.6,221.5 611.5,231.5 613.5,224.3 615.4,232.4 617.4,236.6 619.3,238.6 621.3,213.0 623.2,213.0 625.2,221.6 627.2,226.7 629.1,227.6 631.1,237.6 633.0,224.5 635.0,221.2 636.9,219.0 638.9,218.2 640.8,214.3 642.7,216.5 644.7,211.3 646.6,218.6 648.6,213.4 650.6,207.5 652.5,208.0 654.5,206.5 656.4,191.6 658.4,193.1 660.4,189.2 662.3,214.7 664.2,213.7 666.2,207.9 668.2,205.3 670.1,203.8 672.1,205.1 674.0,206.4 676.0,201.8 677.9,201.3 679.9,208.7 681.8,206.8 683.7,201.3 685.7,210.5 687.6,208.3 689.6,224.2 691.5,219.7 693.5,215.3 695.4,236.2 697.4,241.7 699.4,238.4 701.3,238.0 703.3,239.8 705.2,245.9 707.2,245.8 709.1,218.2 711.1,207.0 713.1,212.8 715.0,219.9 717.0,219.3 718.9,226.0 720.8,214.9 722.8,214.1 724.7,218.9 726.7,208.9 728.6,200.5 730.6,197.7 732.6,192.6 734.5,196.7 736.5,197.3 738.4,197.2 740.4,198.8 742.4,202.0 744.4,208.0 746.3,209.8 748.3,236.0 750.3,224.6 752.2,222.1 754.2,218.4 756.1,223.0 758.1,218.2 760.0,216.4 762.0,214.1 763.9,211.6 765.9,219.3 767.9,213.0 769.8,218.5 771.8,226.4 773.7,225.6 775.7,224.3 777.6,216.2 779.5,203.6 781.5,201.8 783.4,216.0 785.4,210.3 787.3,203.1 789.3,224.1 791.2,221.9 793.2,207.0 795.2,203.3 797.2,213.5 799.2,210.1 801.1,211.1 803.1,211.0 805.0,206.6 807.0,204.2 809.0,210.0 810.9,218.2 812.8,209.1 814.8,205.4 816.8,215.1 818.7,223.1 820.7,213.0 822.6,206.8 824.6,206.2 826.5,208.4 828.4,200.5 830.4,202.9 832.4,209.4 834.4,198.1 836.3,189.3 838.3,209.7 840.3,225.5 842.2,211.6 844.2,202.9 846.1,188.1 848.1,187.3 850.1,195.9 852.0,210.1 854.0,210.6 856.0,210.5 857.9,210.6 859.9,210.6 861.8,213.1 863.8,217.4 865.8,216.1 867.7,227.0 869.7,217.7 871.6,222.8 873.6,236.3 875.5,251.6 877.5,229.5 879.5,212.0 881.5,229.3 883.4,243.9 885.3,222.4 887.3,212.6 889.2,207.2 891.2,203.2 893.1,201.2 895.1,199.0 897.1,197.4 899.0,193.5 901.0,197.0 902.9,203.5 904.9,209.6 906.9,212.4 908.8,211.4 910.8,212.1 912.7,208.7 914.7,192.5 916.6,184.0 918.6,186.2 920.6,192.1 922.6,200.6 924.5,206.7 926.5,209.3 928.5,209.7 930.4,214.2 932.4,213.6 934.3,218.5 936.3,221.4 938.3,216.2 940.2,211.4 942.2,204.3 944.2,205.4 946.1,208.4 948.1,216.3 950.0,216.3" fill="none" stroke="#d62728" stroke-width="2" stroke-dasharray="6 4"/>
<polyline points="70.0,253.3 72.0,261.5 73.9,273.1 75.8,286.3 77.8,296.5 79.7,303.5 81.7,305.3 83.7,301.1 85.6,291.2 87.6,285.0 89.5,282.9 91.5,283.7 93.4,288.7 95.4,300.2 97.3,308.2 99.3,306.8 101.2,306.4 103.2,278.3 105.2,271.0 107.1,309.0 109.1,303.2 111.0,303.8 113.0,284.4 115.0,283.3 116.9,283.4 118.8,290.1 120.8,293.0 122.7,296.6 124.7,304.1 126.6,307.6 128.6,308.8 130.5,308.2 132.5,304.3 134.5,302.0 136.4,298.6 138.4,300.4 140.3,301.6 142.3,302.0 144.2,301.0 146.2,297.2 148.1,290.9 150.1,285.4 152.1,283.8 154.0,287.2 156.0,291.5 157.9,295.0 159.9,297.0 161.8,297.3 163.8,296.1 165.8,294.1 167.7,292.4 169.7,291.1 171.6,290.4 173.6,290.3 175.5,290.2 177.5,290.1 179.4,289.8 181.4,289.1 183.3,285.8 185.3,285.3 187.3,285.8 189.2,286.9 191.2,287.9 193.2,288.5 195.1,288.6 197.0,288.1 199.0,287.4 201.0,286.5 202.9,285.2 204.9,283.6 206.9,281.3 208.8,281.5 210.8,281.0 212.7,282.1 214.7,283.5 216.7,284.0 218.6,283.1 220.6,283.6 222.5,280.3 224.5,281.2 226.5,283.5 228.4,285.3 230.4,286.5 232.3,287.3 234.3,288.2 236.2,287.9 238.2,287.3 240.1,286.9 242.1,286.1 244.0,284.9 245.9,283.1 247.9,281.1 249.9,279.2 251.9,277.7 253.8,276.8 255.8,276.6 257.8,276.6 259.7,277.0 261.7,278.1 263.6,280.5 265.6,282.6 267.5,282.4 269.5,282.7 271.4,280.2 273.4,279.2 275.4,279.2 277.3,279.2 279.2,278.2 281.1,276.8 283.1,275.6 285.0,275.1 287.0,275.9 289.0,275.4 291.0,276.7 292.9,274.6 294.8,271.7 296.8,270.3 298.8,271.8 300.7,273.5 302.7,274.3 304.6,273.7 306.6,275.2 308.5,277.6 310.5,279.1 312.5,279.9 314.4,281.1 316.4,282.7 318.3,284.1 320.3,285.3 322.2,286.1 324.2,286.5 326.1,286.8 328.1,289.3 330.0,293.7 332.0,295.1 333.9,297.5 335.9,302.6 337.8,307.9 339.8,297.0 341.8,290.2 343.7,292.4 345.7,294.4 347.6,295.8 349.5,296.6 351.5,297.1 353.5,297.8 355.4,298.8 357.4,300.4 359.4,297.8 361.3,294.2 363.2,289.1 365.2,283.8 367.1,280.0 369.1,279.0 371.1,279.9 373.0,281.3 375.0,283.7 376.9,285.6 378.8,285.9 380.7,285.2 382.7,285.7 384.7,287.6 386.7,289.3 388.7,291.2 390.6,292.3 392.6,292.8 394.6,292.6 396.5,297.3 398.5,301.6 400.4,300.0 402.4,289.4 404.3,287.7 406.4,283.6 408.3,279.9 410.3,280.6 412.2,282.8 414.2,270.2 416.1,272.6 418.1,267.6 420.0,262.2 422.0,265.6 424.0,265.0 425.9,258.5 427.9,249.1 429.9,247.1 431.8,252.0 433.8,254.8 435.8,257.5 437.7,253.2 439.7,256.0 441.6,256.1 443.5,253.8 445.5,250.8 447.4,246.0 449.4,245.4 451.3,245.2 453.3,251.6 455.2,255.9 457.2,255.3 459.1,253.9 461.1,252.6 463.1,251.0 465.0,248.9 467.0,245.6 469.0,247.7 470.9,251.4 472.9,249.9 474.8,245.0 476.7,239.3 478.7,238.2 480.7,236.3 482.6,236.8 484.6,235.4 486.6,235.1 488.5,230.2 490.5,222.6 492.4,219.5 494.4,219.4 496.4,217.5 498.3,218.9 500.3,217.6 502.2,218.4 504.1,219.4 506.1,220.9 508.1,220.5 510.0,222.8 511.9,226.4 513.9,225.9 515.8,226.2 517.8,226.9 519.7,228.6 521.7,229.8 523.6,226.6 525.6,226.0 527.5,225.7 529.4,222.1 531.4,225.9 533.3,225.6 535.3,219.9 537.2,221.7 539.1,228.0 541.1,221.9 543.0,222.3 544.9,223.9 546.9,225.0 548.9,224.7 550.8,225.2 552.7,221.0 554.7,216.2 556.7,204.4 558.6,205.7 560.6,207.3 562.6,208.3 564.5,207.9 566.5,208.3 568.4,210.0 570.4,218.1 572.4,216.4 574.3,220.9 576.3,231.2 578.2,226.1 580.2,221.8 582.1,217.5 584.1,220.8 586.1,229.3 588.0,221.4 590.0,219.7 591.9,214.3 593.9,216.9 595.8,211.9 597.8,212.2 599.8,210.7 601.7,209.2 603.7,208.9 605.7,208.7 607.6,211.9 609.6,218.9 611.5,215.8 613.5,214.9 615.4,213.7 617.4,217.1 619.3,222.5 621.3,230.7 623.2,216.8 625.2,214.3 627.2,218.0 629.1,223.6 631.1,228.3 633.0,237.1 635.0,232.2 636.9,226.0 638.9,218.3 640.8,207.0 642.7,201.5 644.7,206.1 646.6,209.7 648.6,210.9 650.6,211.9 652.5,213.4 654.5,214.9 656.4,212.6 658.4,214.7 660.4,216.7 662.3,218.5 664.2,219.0 666.2,220.2 668.2,219.8 670.1,220.6 672.1,221.9 674.0,223.7 676.0,221.8 677.9,221.2 679.9,217.3 681.8,214.1 683.7,215.6 685.7,215.1 687.6,216.5 689.6,214.8 691.5,215.0 693.5,215.2 695.4,218.3 697.4,215.4 699.4,219.3 701.3,217.5 703.3,215.6 705.2,210.7 707.2,206.0 709.1,216.5 711.1,210.0 713.1,206.1 715.0,204.8 717.0,207.6 718.9,210.7 720.8,211.5 722.8,212.0 724.7,210.9 726.7,209.0 728.6,210.0 730.6,207.3 732.6,205.2 734.5,205.0 736.5,204.4 738.4,205.7 740.4,206.5 742.4,207.5 744.4,209.3 746.3,212.7 748.3,211.6 750.3,209.9 752.2,211.1 754.2,212.1 756.1,213.4 758.1,215.5 760.0,216.4 762.0,214.7 763.9,215.6 765.9,216.0 767.9,218.3 769.8,215.7 771.8,217.1 773.7,203.0 775.7,207.1 777.6,211.1 779.5,213.4 781.5,214.8 783.4,205.8 785.4,210.7 787.3,209.5 789.3,213.8 791.2,213.0 793.2,209.4 795.2,207.7 797.2,202.7 799.2,196.6 801.1,197.2 803.1,194.8 805.0,192.0 807.0,192.3 809.0,184.7 810.9,179.7 812.8,181.1 814.8,181.1 816.8,179.6 818.7,180.1 820.7,184.3 822.6,184.7 824.6,196.9 826.5,204.4 828.4,207.0 830.4,206.4 832.4,210.2 834.4,208.3 836.3,206.2 838.3,198.7 840.3,194.0 842.2,188.7 844.2,188.8 846.1,188.0 848.1,193.1 850.1,189.0 852.0,189.7 854.0,198.6 856.0,199.7 857.9,201.3 859.9,202.4 861.8,204.7 863.8,209.5 865.8,212.5 867.7,216.0 869.7,217.2 871.6,218.6 873.6,218.9 875.5,215.7 877.5,213.8 879.5,212.5 881.5,214.0 883.4,216.7 885.3,212.0 887.3,211.6 889.2,212.9 891.2,208.0 893.1,206.5 895.1,205.2 897.1,202.5 899.0,200.1 901.0,199.1 902.9,199.1 904.9,199.7 906.9,199.4 908.8,198.9 910.8,200.2 912.7,201.9 914.7,204.7 916.6,205.2 918.6,206.5 920.6,210.5 922.6,216.9 924.5,223.7 926.5,228.3 928.5,231.2 930.4,232.2 932.4,232.9 934.3,235.8 936.3,240.9 938.3,246.0 940.2,248.2 942.2,244.9 944.2,247.0 946.1,247.0 948.1,253.0 950.0,256.5" fill="none" stroke="#2ca02c" stroke-width="2" stroke-dasharray="6 4"/>
<polyline points="70.0,279.2 72.0,280.6 73.9,280.7 75.8,279.7 77.8,278.5 79.7,275.8 81.7,275.5 83.7,274.9 85.6,273.6 87.6,273.2 89.5,272.2 91.5,270.8 93.4,268.1 95.4,261.6 97.3,251.2 99.3,245.1 101.2,247.0 103.2,267.5 105.2,267.8 107.1,270.4 109.1,276.0 111.0,277.4 113.0,275.4 115.0,276.7 116.9,278.3 118.8,279.8 120.8,279.9 122.7,279.1 124.7,274.6 126.6,268.8 128.6,268.1 130.5,269.9 132.5,272.8 134.5,270.9 136.4,269.4 138.4,267.8 140.3,267.6 142.3,268.1 144.2,268.2 146.2,267.4 148.1,265.0 150.1,261.2 152.1,258.0 154.0,255.4 156.0,252.1 157.9,252.8 159.9,251.7 161.8,250.4 163.8,249.1 165.8,247.9 167.7,247.5 169.7,247.3 171.6,247.8 173.6,248.3 175.5,248.5 177.5,248.7 179.4,248.6 181.4,248.4 183.3,247.3 185.3,247.5 187.3,248.3 189.2,249.3 191.2,250.5 193.2,251.3 195.1,251.7 197.0,251.2 199.0,250.5 201.0,249.9 202.9,248.7 204.9,247.3 206.9,245.7 208.8,244.5 210.8,243.8 212.7,244.2 214.7,246.2 216.7,249.4 218.6,251.2 220.6,250.7 222.5,248.3 224.5,246.5 226.5,244.7 228.4,243.2 230.4,243.5 232.3,245.4 234.3,246.9 236.2,247.4 238.2,247.6 240.1,247.6 242.1,247.2 244.0,246.7 245.9,245.9 247.9,245.1 249.9,244.3 251.9,243.7 253.8,242.8 255.8,241.6 257.8,240.6 259.7,240.0 261.7,239.5 263.6,239.9 265.6,243.2 267.5,257.0 269.5,256.5 271.4,253.3 273.4,252.1 275.4,250.7 277.3,248.6 279.2,245.5 281.1,243.0 283.1,241.2 285.0,240.5 287.0,240.4 289.0,236.1 291.0,233.1 292.9,234.8 294.8,236.0 296.8,236.9 298.8,235.9 300.7,234.1 302.7,234.2 304.6,232.0 306.6,230.8 308.5,230.7 310.5,231.9 312.5,233.8 314.4,236.1 316.4,239.0 318.3,241.8 320.3,244.2 322.2,246.2 324.2,247.7 326.1,248.4 328.1,249.3 330.0,250.3 332.0,247.7 333.9,246.6 335.9,246.2 337.8,251.1 339.8,260.0 341.8,245.1 343.7,249.2 345.7,251.8 347.6,253.0 349.5,253.5 351.5,253.5 353.5,253.5 355.4,253.6 357.4,254.1 359.4,252.5 361.3,251.4 363.2,251.4 365.2,252.8 367.1,253.6 369.1,250.9 371.1,246.8 373.0,243.7 375.0,244.3 376.9,245.9 378.8,247.0 380.7,248.1 382.7,249.1 384.7,249.9 386.7,250.7 388.7,250.7 390.6,249.9 392.6,248.2 394.6,247.2 396.5,248.9 398.5,243.1 400.4,246.8 402.4,252.2 404.3,252.0 406.4,244.3 408.3,242.7 410.3,239.7 412.2,235.2 414.2,225.4 416.1,224.1 418.1,221.7 420.0,224.1 422.0,222.5 424.0,219.4 425.9,214.6 427.9,209.7 429.9,211.5 431.8,221.3 433.8,219.3 435.8,214.6 437.7,213.2 439.7,211.4 441.6,209.2 443.5,208.6 445.5,208.4 447.4,200.7 449.4,200.8 451.3,194.5 453.3,205.3 455.2,206.6 457.2,202.2 459.1,201.9 461.1,203.4 463.1,205.5 465.0,199.1 467.0,196.9 469.0,194.9 470.9,191.8 472.9,192.2 474.8,192.5 476.7,190.1 478.7,193.0 480.7,190.3 482.6,190.5 484.6,189.7 486.6,183.3 488.5,181.0 490.5,178.2 492.4,179.0 494.4,180.9 496.4,181.4 498.3,181.7 500.3,183.4 502.2,183.0 504.1,179.9 506.1,181.1 508.1,186.0 510.0,190.3 511.9,188.1 513.9,184.0 515.8,184.8 517.8,185.6 519.7,186.2 521.7,183.3 523.6,179.7 525.6,181.2 527.5,183.2 529.4,179.9 531.4,181.0 533.3,181.0 535.3,180.2 537.2,178.8 539.1,174.9 541.1,174.1 543.0,177.5 544.9,177.0 546.9,175.9 548.9,175.1 550.8,173.9 552.7,171.9 554.7,174.6 556.7,173.0 558.6,173.9 560.6,176.0 562.6,174.8 564.5,171.5 566.5,168.9 568.4,170.2 570.4,172.4 572.4,173.2 574.3,173.5 576.3,173.2 578.2,173.4 580.2,171.9 582.1,176.3 584.1,175.3 586.1,175.3 588.0,173.7 590.0,169.4 591.9,166.1 593.9,168.9 595.8,166.7 597.8,167.6 599.8,166.8 601.7,166.6 603.7,167.4 605.7,168.1 607.6,170.0 609.6,176.1 611.5,175.2 613.5,175.3 615.4,176.4 617.4,177.6 619.3,178.4 621.3,182.3 623.2,181.2 625.2,182.4 627.2,178.6 629.1,178.4 631.1,190.2 633.0,190.8 635.0,194.7 636.9,192.0 638.9,188.9 640.8,188.0 642.7,186.8 644.7,187.6 646.6,184.3 648.6,183.5 650.6,179.2 652.5,175.3 654.5,172.6 656.4,171.9 658.4,170.6 660.4,171.2 662.3,168.2 664.2,169.1 666.2,171.0 668.2,171.2 670.1,176.7 672.1,176.2 674.0,173.8 676.0,171.4 677.9,170.8 679.9,171.0 681.8,169.4 683.7,171.5 685.7,166.9 687.6,168.8 689.6,169.9 691.5,164.3 693.5,161.2 695.4,172.3 697.4,172.2 699.4,171.4 701.3,167.6 703.3,168.3 705.2,168.4 707.2,162.3 709.1,168.3 711.1,162.5 713.1,158.2 715.0,156.8 717.0,158.1 718.9,163.6 720.8,171.3 722.8,168.0 724.7,166.0 726.7,165.6 728.6,165.2 730.6,166.9 732.6,163.8 734.5,165.9 736.5,166.1 738.4,166.5 740.4,165.6 742.4,164.7 744.4,164.5 746.3,165.4 748.3,165.1 750.3,168.0 752.2,166.0 754.2,165.1 756.1,164.8 758.1,164.2 760.0,164.1 762.0,164.1 763.9,163.7 765.9,163.6 767.9,166.2 769.8,168.0 771.8,165.8 773.7,160.2 775.7,163.6 777.6,168.2 779.5,171.4 781.5,172.6 783.4,167.6 785.4,165.7 787.3,164.0 789.3,162.4 791.2,160.3 793.2,156.1 795.2,154.8 797.2,156.1 799.2,153.8 801.1,148.2 803.1,143.9 805.0,140.3 807.0,142.6 809.0,142.2 810.9,139.6 812.8,137.8 814.8,136.1 816.8,134.6 818.7,134.3 820.7,133.5 822.6,134.1 824.6,135.4 826.5,135.7 828.4,155.1 830.4,166.5 832.4,168.6 834.4,163.6 836.3,163.2 838.3,158.4 840.3,156.2 842.2,150.1 844.2,141.8 846.1,141.1 848.1,137.9 850.1,144.6 852.0,148.9 854.0,153.5 856.0,155.0 857.9,156.6 859.9,158.1 861.8,158.8 863.8,159.7 865.8,160.9 867.7,162.8 869.7,163.8 871.6,165.6 873.6,167.2 875.5,168.3 877.5,165.6 879.5,163.9 881.5,163.3 883.4,170.5 885.3,166.4 887.3,164.3 889.2,163.2 891.2,162.0 893.1,162.6 895.1,162.4 897.1,161.9 899.0,161.4 901.0,160.8 902.9,159.7 904.9,158.8 906.9,159.2 908.8,158.2 910.8,153.7 912.7,153.1 914.7,153.2 916.6,154.6 918.6,156.1 920.6,158.5 922.6,161.2 924.5,168.8 926.5,172.6 928.5,177.7 930.4,178.6 932.4,178.4 934.3,178.8 936.3,181.8 938.3,184.0 940.2,185.4 942.2,183.1 944.2,182.6 946.1,188.8 948.1,195.1 950.0,196.0" fill="none" stroke="#1f77b4" stroke-width="2" stroke-dasharray="6 4"/>
<line x1="80" y1="58" x2="108" y2="58" stroke="#111111" stroke-width="2"/>
<text x="116" y="62" font-size="12" font-family="Arial">Ground Truth</text>
<line x1="80" y1="76" x2="108" y2="76" stroke="#d62728" stroke-width="2"/>
<text x="116" y="80" font-size="12" font-family="Arial">Ridge</text>
<line x1="80" y1="94" x2="108" y2="94" stroke="#2ca02c" stroke-width="2"/>
<text x="116" y="98" font-size="12" font-family="Arial">Dynamic LSTM</text>
<line x1="80" y1="112" x2="108" y2="112" stroke="#1f77b4" stroke-width="2"/>
<text x="116" y="116" font-size="12" font-family="Arial">Static+Dynamic LSTM</text>
<text x="70" y="382" font-size="12" font-family="Arial">横轴：session时间秒；纵轴：FMS 0-20；橙色竖线：FMS update事件；未对预测做额外平滑。</text>
<text x="70" y="402" font-size="12" font-family="Arial">Ridge、dynamic-only LSTM 与 static+dynamic LSTM；均为OOF测试预测。</text>
</svg>