<svg xmlns="http://www.w3.org/2000/svg" width="980" height="420" viewBox="0 0 980 420">
<rect width="100%" height="100%" fill="white"/>
<text x="70" y="24" font-size="18" font-family="Arial">p10_error: PA39_Reverse_Optical_Flow_Low_Density_5_03_01_PM</text>
<line x1="70" y1="40" x2="70" y2="350" stroke="#333"/>
<line x1="70" y1="350" x2="950" y2="350" stroke="#333"/>
<line x1="70" y1="350.0" x2="950" y2="350.0" stroke="#ddd"/>
<text x="28" y="354.0" font-size="11" font-family="Arial">0</text>
<line x1="70" y1="272.5" x2="950" y2="272.5" stroke="#ddd"/>
<text x="28" y="276.5" font-size="11" font-family="Arial">5</text>
<line x1="70" y1="195.0" x2="950" y2="195.0" stroke="#ddd"/>
<text x="28" y="199.0" font-size="11" font-family="Arial">10</text>
<line x1="70" y1="117.5" x2="950" y2="117.5" stroke="#ddd"/>
<text x="28" y="121.5" font-size="11" font-family="Arial">15</text>
<line x1="70" y1="40.0" x2="950" y2="40.0" stroke="#ddd"/>
<text x="28" y="44.0" font-size="11" font-family="Arial">20</text>
<line x1="145.6" y1="40" x2="145.6" y2="350" stroke="#ff9900" stroke-width="1" opacity="0.45"/>
<line x1="149.6" y1="40" x2="149.6" y2="350" stroke="#ff9900" stroke-width="1" opacity="0.45"/>
<line x1="151.7" y1="40" x2="151.7" y2="350" stroke="#ff9900" stroke-width="1" opacity="0.45"/>
<line x1="210.8" y1="40" x2="210.8" y2="350" stroke="#ff9900" stroke-width="1" opacity="0.45"/>
<line x1="217.0" y1="40" x2="217.0" y2="350" stroke="#ff9900" stroke-width="1" opacity="0.45"/>
<line x1="308.9" y1="40" x2="308.9" y2="350" stroke="#ff9900" stroke-width="1" opacity="0.45"/>
<line x1="310.9" y1="40" x2="310.9" y2="350" stroke="#ff9900" stroke-width="1" opacity="0.45"/>
<line x1="317.0" y1="40" x2="317.0" y2="350" stroke="#ff9900" stroke-width="1" opacity="0.45"/>
<line x1="319.1" y1="40" x2="319.1" y2="350" stroke="#ff9900" stroke-width="1" opacity="0.45"/>
<line x1="409.0" y1="40" x2="409.0" y2="350" stroke="#ff9900" stroke-width="1" opacity="0.45"/>
<line x1="413.0" y1="40" x2="413.0" y2="350" stroke="#ff9900" stroke-width="1" opacity="0.45"/>
<line x1="417.1" y1="40" x2="417.1" y2="350" stroke="#ff9900" stroke-width="1" opacity="0.45"/>
<line x1="419.1" y1="40" x2="419.1" y2="350" stroke="#ff9900" stroke-width="1" opacity="0.45"/>
<line x1="449.8" y1="40" x2="449.8" y2="350" stroke="#ff9900" stroke-width="1" opacity="0.45"/>
<line x1="451.8" y1="40" x2="451.8" y2="350" stroke="#ff9900" stroke-width="1" opacity="0.45"/>
<line x1="521.3" y1="40" x2="521.3" y2="350" stroke="#ff9900" stroke-width="1" opacity="0.45"/>
<line x1="594.8" y1="40" x2="594.8" y2="350" stroke="#ff9900" stroke-width="1" opacity="0.45"/>
<line x1="623.3" y1="40" x2="623.3" y2="350" stroke="#ff9900" stroke-width="1" opacity="0.45"/>
<line x1="627.4" y1="40" x2="627.4" y2="350" stroke="#ff9900" stroke-width="1" opacity="0.45"/>
<line x1="629.5" y1="40" x2="629.5" y2="350" stroke="#ff9900" stroke-width="1" opacity="0.45"/>
<line x1="639.7" y1="40" x2="639.7" y2="350" stroke="#ff9900" stroke-width="1" opacity="0.45"/>
<line x1="686.7" y1="40" x2="686.7" y2="350" stroke="#ff9900" stroke-width="1" opacity="0.45"/>
<line x1="688.7" y1="40" x2="688.7" y2="350" stroke="#ff9900" stroke-width="1" opacity="0.45"/>
<line x1="758.0" y1="40" x2="758.0" y2="350" stroke="#ff9900" stroke-width="1" opacity="0.45"/>
<line x1="760.1" y1="40" x2="760.1" y2="350" stroke="#ff9900" stroke-width="1" opacity="0.45"/>
<line x1="790.7" y1="40" x2="790.7" y2="350" stroke="#ff9900" stroke-width="1" opacity="0.45"/>
<line x1="792.8" y1="40" x2="792.8" y2="350" stroke="#ff9900" stroke-width="1" opacity="0.45"/>
<line x1="811.1" y1="40" x2="811.1" y2="350" stroke="#ff9900" stroke-width="1" opacity="0.45"/>
<line x1="813.2" y1="40" x2="813.2" y2="350" stroke="#ff9900" stroke-width="1" opacity="0.45"/>
<line x1="835.6" y1="40" x2="835.6" y2="350" stroke="#ff9900" stroke-width="1" opacity="0.45"/>
<line x1="839.7" y1="40" x2="839.7" y2="350" stroke="#ff9900" stroke-width="1" opacity="0.45"/>
<line x1="841.8" y1="40" x2="841.8" y2="350" stroke="#ff9900" stroke-width="1" opacity="0.45"/>
<line x1="849.9" y1="40" x2="849.9" y2="350" stroke="#ff9900" stroke-width="1" opacity="0.45"/>
<line x1="851.9" y1="40" x2="851.9" y2="350" stroke="#ff9900" stroke-width="1" opacity="0.45"/>
<line x1="872.4" y1="40" x2="872.4" y2="350" stroke="#ff9900" stroke-width="1" opacity="0.45"/>
<line x1="874.4" y1="40" x2="874.4" y2="350" stroke="#ff9900" stroke-width="1" opacity="0.45"/>
<line x1="876.4" y1="40" x2="876.4" y2="350" stroke="#ff9900" stroke-width="1" opacity="0.45"/>
<line x1="878.5" y1="40" x2="878.5" y2="350" stroke="#ff9900" stroke-width="1" opacity="0.45"/>
<line x1="890.8" y1="40" x2="890.8" y2="350" stroke="#ff9900" stroke-width="1" opacity="0.45"/>
<line x1="894.9" y1="40" x2="894.9" y2="350" stroke="#ff9900" stroke-width="1" opacity="0.45"/>
<line x1="935.8" y1="40" x2="935.8" y2="350" stroke="#ff9900" stroke-width="1" opacity="0.45"/>
<polyline points="70.0,350.0 72.0,350.0 74.1,350.0 76.1,350.0 78.2,350.0 80.2,350.0 82.3,350.0 84.2,350.0 86.3,350.0 88.3,350.0 90.4,350.0 92.4,350.0 94.5,350.0 96.5,350.0 98.6,350.0 100.6,350.0 102.7,350.0 104.7,350.0 106.8,350.0 108.8,350.0 110.9,350.0 112.9,350.0 115.0,350.0 117.0,350.0 119.1,350.0 121.0,350.0 123.1,350.0 125.1,350.0 127.2,350.0 129.2,350.0 131.3,350.0 133.3,350.0 135.4,350.0 137.4,350.0 139.5,350.0 141.5,350.0 143.6,350.0 145.6,334.5 147.6,334.5 149.6,319.0 151.7,303.5 153.7,303.5 155.8,303.5 157.8,303.5 159.9,303.5 161.9,303.5 163.9,303.5 165.9,303.5 168.0,303.5 170.0,303.5 172.1,303.5 174.1,303.5 176.2,303.5 178.2,303.5 180.3,303.5 182.3,303.5 184.3,303.5 186.3,303.5 188.4,303.5 190.4,303.5 192.5,303.5 194.5,303.5 196.6,303.5 198.6,303.5 200.7,303.5 202.7,303.5 204.8,303.5 206.8,303.5 208.8,303.5 210.8,272.5 212.9,272.5 214.9,272.5 217.0,303.5 219.0,303.5 221.1,303.5 223.1,303.5 225.2,303.5 227.2,303.5 229.3,303.5 231.3,303.5 233.4,303.5 235.4,303.5 237.5,303.5 239.5,303.5 241.5,303.5 243.5,303.5 245.6,303.5 247.6,303.5 249.7,303.5 251.7,303.5 253.8,303.5 255.8,303.5 257.8,303.5 259.9,303.5 261.9,303.5 263.9,303.5 266.0,303.5 268.0,303.5 270.1,303.5 272.1,303.5 274.2,303.5 276.2,303.5 278.3,303.5 280.3,303.5 282.4,303.5 284.4,303.5 286.4,303.5 288.4,303.5 290.5,303.5 292.5,303.5 294.6,303.5 296.6,303.5 298.7,303.5 300.7,303.5 302.8,303.5 304.8,303.5 306.9,303.5 308.9,288.0 310.9,272.5 312.9,272.5 315.0,272.5 317.0,288.0 319.1,303.5 321.1,303.5 323.2,303.5 325.2,303.5 327.3,303.5 329.3,303.5 331.4,303.5 333.4,303.5 335.5,303.5 337.5,303.5 339.5,303.5 341.5,303.5 343.6,303.5 345.6,303.5 347.7,303.5 349.7,303.5 351.8,303.5 353.8,303.5 355.9,303.5 357.9,303.5 360.0,303.5 362.0,303.5 364.0,303.5 366.0,303.5 368.1,303.5 370.1,303.5 372.2,303.5 374.2,303.5 376.3,303.5 378.3,303.5 380.4,303.5 382.4,303.5 384.5,303.5 386.5,303.5 388.6,303.5 390.5,303.5 392.6,303.5 394.6,303.5 396.7,303.5 398.7,303.5 400.8,303.5 402.8,303.5 404.9,303.5 406.9,303.5 409.0,288.0 411.0,288.0 413.0,272.5 415.1,272.5 417.1,288.0 419.1,303.5 421.2,303.5 423.2,303.5 425.3,303.5 427.3,303.5 429.4,303.5 431.4,303.5 433.5,303.5 435.5,303.5 437.6,303.5 439.6,303.5 441.6,303.5 443.6,303.5 445.7,303.5 447.7,303.5 449.8,288.0 451.8,272.5 453.9,272.5 455.9,272.5 458.0,272.5 460.0,272.5 462.1,272.5 464.1,272.5 466.3,272.5 468.2,272.5 470.3,272.5 472.3,272.5 474.4,272.5 476.4,272.5 478.4,272.5 480.4,272.5 482.5,272.5 484.5,272.5 486.6,272.5 488.6,272.5 490.7,272.5 492.7,272.5 494.8,272.5 496.8,272.5 498.9,272.5 500.9,272.5 503.0,272.5 505.0,272.5 507.0,272.5 509.0,272.5 511.1,272.5 513.1,272.5 515.2,272.5 517.2,272.5 519.3,272.5 521.3,257.0 523.4,257.0 525.3,257.0 527.5,257.0 529.5,257.0 531.5,257.0 533.5,257.0 535.6,257.0 537.6,257.0 539.7,257.0 541.7,257.0 543.8,257.0 545.8,257.0 547.9,257.0 549.9,257.0 552.0,257.0 554.0,257.0 556.1,257.0 558.0,257.0 560.1,257.0 562.1,257.0 564.2,257.0 566.2,257.0 568.3,257.0 570.3,257.0 572.4,257.0 574.4,257.0 576.5,257.0 578.5,257.0 580.5,257.0 582.5,257.0 584.6,257.0 586.6,257.0 588.7,257.0 590.7,257.0 592.8,257.0 594.8,272.5 596.8,272.5 598.8,272.5 600.9,272.5 602.9,272.5 605.0,272.5 607.0,272.5 609.1,272.5 611.1,272.5 613.2,272.5 615.2,272.5 617.2,272.5 619.2,272.5 621.3,272.5 623.3,303.5 625.4,303.5 627.4,272.5 629.5,257.0 631.5,257.0 633.6,257.0 635.6,257.0 637.7,257.0 639.7,288.0 641.8,288.0 643.7,288.0 645.8,288.0 647.8,288.0 649.9,288.0 651.9,288.0 654.0,288.0 656.0,288.0 658.1,288.0 660.1,288.0 662.2,288.0 664.2,288.0 666.3,288.0 668.3,288.0 670.4,288.0 672.3,288.0 674.4,288.0 676.4,288.0 678.5,288.0 680.5,288.0 682.6,288.0 684.6,288.0 686.7,257.0 688.7,241.5 690.8,241.5 692.8,241.5 694.9,241.5 696.8,241.5 698.9,241.5 700.9,241.5 703.0,241.5 705.0,241.5 707.1,241.5 709.1,241.5 711.2,241.5 713.2,241.5 715.3,241.5 717.3,241.5 719.4,241.5 721.4,241.5 723.5,241.5 725.4,241.5 727.5,241.5 729.5,241.5 731.6,241.5 733.6,241.5 735.6,241.5 737.6,241.5 739.7,241.5 741.7,241.5 743.8,241.5 745.7,241.5 747.8,241.5 749.8,241.5 751.9,241.5 753.9,241.5 756.0,241.5 758.0,257.0 760.1,272.5 762.1,272.5 764.2,272.5 766.2,272.5 768.3,272.5 770.3,272.5 772.3,272.5 774.3,272.5 776.4,272.5 778.4,272.5 780.5,272.5 782.5,272.5 784.6,272.5 786.6,272.5 788.7,272.5 790.7,288.0 792.8,303.5 794.8,303.5 796.9,303.5 798.8,303.5 800.9,303.5 802.9,303.5 805.0,303.5 807.0,303.5 809.1,303.5 811.1,288.0 813.2,257.0 815.2,257.0 817.3,257.0 819.3,257.0 821.4,257.0 823.4,257.0 825.4,257.0 827.4,257.0 829.5,257.0 831.5,257.0 833.6,257.0 835.6,272.5 837.7,272.5 839.7,288.0 841.8,319.0 843.8,319.0 845.9,319.0 847.8,319.0 849.9,288.0 851.9,257.0 854.0,257.0 856.0,257.0 858.1,257.0 860.1,257.0 862.2,257.0 864.2,257.0 866.3,257.0 868.3,257.0 870.4,257.0 872.4,272.5 874.4,288.0 876.4,303.5 878.5,319.0 880.5,319.0 882.6,319.0 884.6,319.0 886.7,319.0 888.7,319.0 890.8,303.5 892.8,303.5 894.9,272.5 896.9,272.5 899.0,272.5 900.9,272.5 903.0,272.5 905.0,272.5 907.1,272.5 909.1,272.5 911.2,272.5 913.2,272.5 915.2,272.5 917.2,272.5 919.3,272.5 921.3,272.5 923.4,272.5 925.4,272.5 927.6,272.5 929.6,272.5 931.7,272.5 933.7,272.5 935.8,303.5 937.7,303.5 939.8,303.5 941.9,303.5 943.9,303.5 945.9,303.5 948.0,303.5 950.0,303.5" fill="none" stroke="#111111" stroke-width="2"/>
<polyline points="70.0,350.0 72.0,350.0 74.1,350.0 76.1,350.0 78.2,350.0 80.2,350.0 82.3,346.7 84.2,341.9 86.3,336.6 88.3,333.4 90.4,330.6 92.4,342.8 94.5,345.0 96.5,349.9 98.6,349.8 100.6,349.8 102.7,349.9 104.7,345.2 106.8,343.2 108.8,340.8 110.9,341.9 112.9,344.7 115.0,344.4 117.0,341.8 119.1,335.7 121.0,331.4 123.1,330.5 125.1,331.3 127.2,332.9 129.2,334.5 131.3,335.8 133.3,337.1 135.4,336.9 137.4,334.4 139.5,330.9 141.5,326.3 143.6,321.3 145.6,317.5 147.6,282.4 149.6,282.6 151.7,277.4 153.7,274.4 155.8,275.3 157.8,278.2 159.9,281.9 161.9,286.5 163.9,292.0 165.9,297.7 168.0,303.9 170.0,309.9 172.1,316.0 174.1,321.4 176.2,325.5 178.2,328.6 180.3,331.7 182.3,336.9 184.3,348.0 186.3,348.5 188.4,317.9 190.4,318.9 192.5,319.9 194.5,322.2 196.6,322.7 198.6,321.9 200.7,319.6 202.7,317.1 204.8,315.1 206.8,314.3 208.8,315.2 210.8,314.6 212.9,313.8 214.9,312.2 217.0,311.9 219.0,312.9 221.1,313.0 223.1,311.2 225.2,310.6 227.2,311.2 229.3,312.4 231.3,313.0 233.4,313.6 235.4,314.3 237.5,315.0 239.5,316.1 241.5,316.7 243.5,317.4 245.6,317.8 247.6,317.6 249.7,315.2 251.7,312.4 253.8,309.7 255.8,307.1 257.8,305.3 259.9,304.8 261.9,304.5 263.9,304.4 266.0,302.7 268.0,300.7 270.1,302.2 272.1,303.5 274.2,304.3 276.2,305.9 278.3,304.9 280.3,304.4 282.4,302.6 284.4,302.4 286.4,302.1 288.4,302.6 290.5,303.6 292.5,300.8 294.6,300.4 296.6,301.6 298.7,302.2 300.7,300.6 302.8,292.3 304.8,286.0 306.9,281.8 308.9,277.8 310.9,276.2 312.9,277.4 315.0,281.1 317.0,285.8 319.1,290.2 321.1,292.9 323.2,294.1 325.2,295.0 327.3,296.6 329.3,299.7 331.4,303.7 333.4,305.7 335.5,308.0 337.5,309.5 339.5,307.8 341.5,305.6 343.6,297.7 345.6,312.3 347.7,314.7 349.7,317.0 351.8,318.1 353.8,317.8 355.9,317.3 357.9,316.9 360.0,318.0 362.0,318.8 364.0,318.2 366.0,316.5 368.1,313.0 370.1,309.0 372.2,304.2 374.2,299.7 376.3,299.2 378.3,306.0 380.4,310.9 382.4,309.8 384.5,310.0 386.5,310.3 388.6,308.7 390.5,308.9 392.6,308.9 394.6,310.0 396.7,311.3 398.7,312.4 400.8,309.3 402.8,306.1 404.9,309.7 406.9,311.5 409.0,315.4 411.0,307.1 413.0,305.9 415.1,298.4 417.1,294.4 419.1,286.1 421.2,289.8 423.2,285.5 425.3,278.2 427.3,276.3 429.4,276.2 431.4,273.7 433.5,271.2 435.5,273.3 437.6,277.9 439.6,276.0 441.6,272.1 443.6,272.8 445.7,270.0 447.7,269.2 449.8,272.0 451.8,268.1 453.9,257.6 455.9,256.5 458.0,259.8 460.0,267.5 462.1,267.0 464.1,260.1 466.3,269.1 468.2,268.0 470.3,266.1 472.3,266.3 474.4,266.8 476.4,266.3 478.4,267.7 480.4,264.2 482.5,261.5 484.5,261.5 486.6,261.2 488.6,254.8 490.7,254.3 492.7,255.1 494.8,255.0 496.8,254.3 498.9,245.1 500.9,244.8 503.0,243.2 505.0,244.2 507.0,241.8 509.0,242.5 511.1,242.4 513.1,243.1 515.2,243.3 517.2,243.5 519.3,243.5 521.3,247.0 523.4,251.1 525.3,253.6 527.5,255.7 529.5,256.1 531.5,255.3 533.5,251.5 535.6,250.4 537.6,250.0 539.7,249.2 541.7,249.3 543.8,244.4 545.8,248.8 547.9,248.5 549.9,246.1 552.0,244.3 554.0,243.1 556.1,243.5 558.0,245.9 560.1,246.0 562.1,246.2 564.2,244.6 566.2,247.3 568.3,249.0 570.3,247.8 572.4,244.5 574.4,242.7 576.5,237.8 578.5,237.9 580.5,237.9 582.5,238.6 584.6,239.0 586.6,234.7 588.7,228.8 590.7,226.3 592.8,231.9 594.8,235.6 596.8,232.4 598.8,226.6 600.9,225.9 602.9,222.8 605.0,224.4 607.0,227.3 609.1,228.5 611.1,228.4 613.2,228.5 615.2,230.9 617.2,230.1 619.2,234.1 621.3,235.8 623.3,238.1 625.4,240.6 627.4,243.0 629.5,250.3 631.5,238.9 633.6,238.3 635.6,239.4 637.7,239.5 639.7,239.4 641.8,258.3 643.7,261.3 645.8,262.7 647.8,261.4 649.9,259.5 651.9,261.3 654.0,254.5 656.0,253.8 658.1,255.1 660.1,255.0 662.2,257.9 664.2,255.3 666.3,248.8 668.3,248.8 670.4,242.8 672.3,242.4 674.4,242.8 676.4,241.8 678.5,240.2 680.5,237.1 682.6,234.7 684.6,236.0 686.7,238.8 688.7,241.8 690.8,245.7 692.8,249.2 694.9,249.9 696.8,248.1 698.9,247.2 700.9,242.2 703.0,243.3 705.0,250.3 707.1,242.2 709.1,239.1 711.2,235.5 713.2,234.7 715.3,238.5 717.3,231.8 719.4,237.7 721.4,235.9 723.5,232.5 725.4,232.0 727.5,233.2 729.5,244.9 731.6,247.6 733.6,240.0 735.6,233.2 737.6,232.6 739.7,241.5 741.7,237.7 743.8,239.0 745.7,238.4 747.8,237.2 749.8,237.7 751.9,239.3 753.9,241.3 756.0,243.6 758.0,242.0 760.1,238.1 762.1,236.1 764.2,235.8 766.2,235.2 768.3,235.3 770.3,236.4 772.3,237.3 774.3,237.8 776.4,239.1 778.4,238.8 780.5,240.5 782.5,239.7 784.6,236.0 786.6,238.6 788.7,239.8 790.7,240.7 792.8,244.1 794.8,235.4 796.9,231.2 798.8,234.1 800.9,231.9 802.9,228.8 805.0,232.8 807.0,231.4 809.1,226.4 811.1,225.2 813.2,223.9 815.2,224.8 817.3,219.2 819.3,213.5 821.4,208.1 823.4,208.4 825.4,210.0 827.4,208.3 829.5,208.6 831.5,209.1 833.6,211.3 835.6,212.7 837.7,213.6 839.7,217.8 841.8,221.6 843.8,232.1 845.9,225.6 847.8,223.1 849.9,224.1 851.9,220.6 854.0,215.8 856.0,211.6 858.1,208.2 860.1,210.6 862.2,217.6 864.2,215.9 866.3,217.7 868.3,217.7 870.4,218.9 872.4,220.5 874.4,221.5 876.4,227.7 878.5,230.8 880.5,236.2 882.6,238.5 884.6,233.9 886.7,230.0 888.7,234.7 890.8,239.2 892.8,237.3 894.9,236.6 896.9,236.1 899.0,242.7 900.9,233.2 903.0,233.1 905.0,235.4 907.1,239.0 909.1,242.1 911.2,242.5 913.2,237.9 915.2,233.6 917.2,227.0 919.3,230.3 921.3,229.7 923.4,225.6 925.4,223.4 927.6,225.8 929.6,227.2 931.7,228.1 933.7,228.9 935.8,230.1 937.7,232.2 939.8,235.8 941.9,238.3 943.9,232.9 945.9,236.8 948.0,242.7 950.0,249.1" fill="none" stroke="#1f77b4" stroke-width="2" stroke-dasharray="6 4"/>
<line x1="80" y1="58" x2="108" y2="58" stroke="#111111" stroke-width="2"/>
<text x="116" y="62" font-size="12" font-family="Arial">Ground Truth</text>
<line x1="80" y1="76" x2="108" y2="76" stroke="#1f77b4" stroke-width="2"/>
<text x="116" y="80" font-size="12" font-family="Arial">Prediction</text>
<text x="70" y="382" font-size="12" font-family="Arial">横轴：session时间秒；纵轴：FMS 0-20；橙色竖线：FMS update事件；未对预测做额外平滑。</text>
<text x="70" y="402" font-size="12" font-family="Arial">session MAE=1.523; RMSE=2.047; R2=-0.235; Pearson r=0.751; DTW=1.314; bias=1.161</text>
</svg>