<svg xmlns="http://www.w3.org/2000/svg" width="980" height="420" viewBox="0 0 980 420">
<rect width="100%" height="100%" fill="white"/>
<text x="70" y="24" font-size="18" font-family="Arial">p90_error: PA7_Base_1_07_38_PM</text>
<line x1="70" y1="40" x2="70" y2="350" stroke="#333"/>
<line x1="70" y1="350" x2="950" y2="350" stroke="#333"/>
<line x1="70" y1="350.0" x2="950" y2="350.0" stroke="#ddd"/>
<text x="28" y="354.0" font-size="11" font-family="Arial">0</text>
<line x1="70" y1="272.5" x2="950" y2="272.5" stroke="#ddd"/>
<text x="28" y="276.5" font-size="11" font-family="Arial">5</text>
<line x1="70" y1="195.0" x2="950" y2="195.0" stroke="#ddd"/>
<text x="28" y="199.0" font-size="11" font-family="Arial">10</text>
<line x1="70" y1="117.5" x2="950" y2="117.5" stroke="#ddd"/>
<text x="28" y="121.5" font-size="11" font-family="Arial">15</text>
<line x1="70" y1="40.0" x2="950" y2="40.0" stroke="#ddd"/>
<text x="28" y="44.0" font-size="11" font-family="Arial">20</text>
<line x1="75.9" y1="40" x2="75.9" y2="350" stroke="#ff9900" stroke-width="1" opacity="0.45"/>
<line x1="79.9" y1="40" x2="79.9" y2="350" stroke="#ff9900" stroke-width="1" opacity="0.45"/>
<line x1="81.9" y1="40" x2="81.9" y2="350" stroke="#ff9900" stroke-width="1" opacity="0.45"/>
<line x1="83.9" y1="40" x2="83.9" y2="350" stroke="#ff9900" stroke-width="1" opacity="0.45"/>
<line x1="139.8" y1="40" x2="139.8" y2="350" stroke="#ff9900" stroke-width="1" opacity="0.45"/>
<line x1="141.8" y1="40" x2="141.8" y2="350" stroke="#ff9900" stroke-width="1" opacity="0.45"/>
<line x1="145.8" y1="40" x2="145.8" y2="350" stroke="#ff9900" stroke-width="1" opacity="0.45"/>
<line x1="203.5" y1="40" x2="203.5" y2="350" stroke="#ff9900" stroke-width="1" opacity="0.45"/>
<line x1="205.5" y1="40" x2="205.5" y2="350" stroke="#ff9900" stroke-width="1" opacity="0.45"/>
<line x1="209.5" y1="40" x2="209.5" y2="350" stroke="#ff9900" stroke-width="1" opacity="0.45"/>
<line x1="211.5" y1="40" x2="211.5" y2="350" stroke="#ff9900" stroke-width="1" opacity="0.45"/>
<line x1="299.1" y1="40" x2="299.1" y2="350" stroke="#ff9900" stroke-width="1" opacity="0.45"/>
<line x1="301.1" y1="40" x2="301.1" y2="350" stroke="#ff9900" stroke-width="1" opacity="0.45"/>
<line x1="303.1" y1="40" x2="303.1" y2="350" stroke="#ff9900" stroke-width="1" opacity="0.45"/>
<line x1="317.0" y1="40" x2="317.0" y2="350" stroke="#ff9900" stroke-width="1" opacity="0.45"/>
<line x1="318.9" y1="40" x2="318.9" y2="350" stroke="#ff9900" stroke-width="1" opacity="0.45"/>
<line x1="322.9" y1="40" x2="322.9" y2="350" stroke="#ff9900" stroke-width="1" opacity="0.45"/>
<line x1="324.9" y1="40" x2="324.9" y2="350" stroke="#ff9900" stroke-width="1" opacity="0.45"/>
<line x1="326.9" y1="40" x2="326.9" y2="350" stroke="#ff9900" stroke-width="1" opacity="0.45"/>
<line x1="352.7" y1="40" x2="352.7" y2="350" stroke="#ff9900" stroke-width="1" opacity="0.45"/>
<line x1="406.7" y1="40" x2="406.7" y2="350" stroke="#ff9900" stroke-width="1" opacity="0.45"/>
<line x1="408.7" y1="40" x2="408.7" y2="350" stroke="#ff9900" stroke-width="1" opacity="0.45"/>
<line x1="410.7" y1="40" x2="410.7" y2="350" stroke="#ff9900" stroke-width="1" opacity="0.45"/>
<line x1="412.7" y1="40" x2="412.7" y2="350" stroke="#ff9900" stroke-width="1" opacity="0.45"/>
<line x1="414.7" y1="40" x2="414.7" y2="350" stroke="#ff9900" stroke-width="1" opacity="0.45"/>
<line x1="442.5" y1="40" x2="442.5" y2="350" stroke="#ff9900" stroke-width="1" opacity="0.45"/>
<line x1="454.5" y1="40" x2="454.5" y2="350" stroke="#ff9900" stroke-width="1" opacity="0.45"/>
<line x1="456.5" y1="40" x2="456.5" y2="350" stroke="#ff9900" stroke-width="1" opacity="0.45"/>
<line x1="478.4" y1="40" x2="478.4" y2="350" stroke="#ff9900" stroke-width="1" opacity="0.45"/>
<line x1="480.4" y1="40" x2="480.4" y2="350" stroke="#ff9900" stroke-width="1" opacity="0.45"/>
<line x1="482.4" y1="40" x2="482.4" y2="350" stroke="#ff9900" stroke-width="1" opacity="0.45"/>
<line x1="577.7" y1="40" x2="577.7" y2="350" stroke="#ff9900" stroke-width="1" opacity="0.45"/>
<line x1="579.7" y1="40" x2="579.7" y2="350" stroke="#ff9900" stroke-width="1" opacity="0.45"/>
<line x1="607.5" y1="40" x2="607.5" y2="350" stroke="#ff9900" stroke-width="1" opacity="0.45"/>
<line x1="609.5" y1="40" x2="609.5" y2="350" stroke="#ff9900" stroke-width="1" opacity="0.45"/>
<line x1="631.5" y1="40" x2="631.5" y2="350" stroke="#ff9900" stroke-width="1" opacity="0.45"/>
<line x1="637.5" y1="40" x2="637.5" y2="350" stroke="#ff9900" stroke-width="1" opacity="0.45"/>
<line x1="643.5" y1="40" x2="643.5" y2="350" stroke="#ff9900" stroke-width="1" opacity="0.45"/>
<line x1="657.5" y1="40" x2="657.5" y2="350" stroke="#ff9900" stroke-width="1" opacity="0.45"/>
<line x1="659.5" y1="40" x2="659.5" y2="350" stroke="#ff9900" stroke-width="1" opacity="0.45"/>
<line x1="661.5" y1="40" x2="661.5" y2="350" stroke="#ff9900" stroke-width="1" opacity="0.45"/>
<line x1="677.4" y1="40" x2="677.4" y2="350" stroke="#ff9900" stroke-width="1" opacity="0.45"/>
<line x1="793.0" y1="40" x2="793.0" y2="350" stroke="#ff9900" stroke-width="1" opacity="0.45"/>
<line x1="795.0" y1="40" x2="795.0" y2="350" stroke="#ff9900" stroke-width="1" opacity="0.45"/>
<line x1="840.8" y1="40" x2="840.8" y2="350" stroke="#ff9900" stroke-width="1" opacity="0.45"/>
<line x1="842.8" y1="40" x2="842.8" y2="350" stroke="#ff9900" stroke-width="1" opacity="0.45"/>
<line x1="844.7" y1="40" x2="844.7" y2="350" stroke="#ff9900" stroke-width="1" opacity="0.45"/>
<line x1="846.7" y1="40" x2="846.7" y2="350" stroke="#ff9900" stroke-width="1" opacity="0.45"/>
<line x1="872.6" y1="40" x2="872.6" y2="350" stroke="#ff9900" stroke-width="1" opacity="0.45"/>
<line x1="874.5" y1="40" x2="874.5" y2="350" stroke="#ff9900" stroke-width="1" opacity="0.45"/>
<line x1="898.4" y1="40" x2="898.4" y2="350" stroke="#ff9900" stroke-width="1" opacity="0.45"/>
<line x1="900.4" y1="40" x2="900.4" y2="350" stroke="#ff9900" stroke-width="1" opacity="0.45"/>
<line x1="942.0" y1="40" x2="942.0" y2="350" stroke="#ff9900" stroke-width="1" opacity="0.45"/>
<line x1="944.0" y1="40" x2="944.0" y2="350" stroke="#ff9900" stroke-width="1" opacity="0.45"/>
<line x1="946.0" y1="40" x2="946.0" y2="350" stroke="#ff9900" stroke-width="1" opacity="0.45"/>
<line x1="948.0" y1="40" x2="948.0" y2="350" stroke="#ff9900" stroke-width="1" opacity="0.45"/>
<polyline points="70.0,334.5 72.0,334.5 73.9,334.5 75.9,319.0 77.9,319.0 79.9,303.5 81.9,288.0 83.9,272.5 86.0,272.5 88.0,272.5 89.9,272.5 91.9,272.5 93.9,272.5 95.9,272.5 97.8,272.5 99.8,272.5 101.8,272.5 103.8,272.5 105.8,272.5 107.8,272.5 109.8,272.5 111.8,272.5 113.8,272.5 115.9,272.5 117.9,272.5 119.9,272.5 121.8,272.5 123.9,272.5 125.9,272.5 127.8,272.5 129.8,272.5 131.8,272.5 133.8,272.5 135.8,272.5 137.8,272.5 139.8,257.0 141.8,241.5 143.8,241.5 145.8,226.0 147.8,226.0 149.7,226.0 151.7,226.0 153.7,226.0 155.7,226.0 157.7,226.0 159.8,226.0 161.7,226.0 163.7,226.0 165.7,226.0 167.6,226.0 169.6,226.0 171.6,226.0 173.6,226.0 175.6,226.0 177.6,226.0 179.5,226.0 181.5,226.0 183.5,226.0 185.5,226.0 187.5,226.0 189.4,226.0 191.4,226.0 193.5,226.0 195.5,226.0 197.5,226.0 199.5,226.0 201.5,226.0 203.5,210.5 205.5,195.0 207.5,195.0 209.5,179.5 211.5,164.0 213.5,164.0 215.5,164.0 217.5,164.0 219.5,164.0 221.5,164.0 223.4,164.0 225.4,164.0 227.4,164.0 229.5,164.0 231.5,164.0 233.4,164.0 235.4,164.0 237.4,164.0 239.4,164.0 241.4,164.0 243.4,164.0 245.4,164.0 247.4,164.0 249.4,164.0 251.4,164.0 253.3,164.0 255.3,164.0 257.3,164.0 259.3,164.0 261.3,164.0 263.3,164.0 265.3,164.0 267.3,164.0 269.3,164.0 271.3,164.0 273.3,164.0 275.3,164.0 277.3,164.0 279.2,164.0 281.3,164.0 283.2,164.0 285.2,164.0 287.2,164.0 289.2,164.0 291.1,164.0 293.2,164.0 295.2,164.0 297.2,164.0 299.1,148.5 301.1,117.5 303.1,102.0 305.1,102.0 307.0,102.0 309.0,102.0 311.0,102.0 313.0,102.0 315.0,102.0 317.0,117.5 318.9,148.5 320.9,148.5 322.9,179.5 324.9,195.0 326.9,210.5 328.9,210.5 330.9,210.5 332.9,210.5 334.8,210.5 336.9,210.5 338.8,210.5 340.8,210.5 342.7,210.5 344.7,210.5 346.7,210.5 348.7,210.5 350.7,210.5 352.7,226.0 354.7,226.0 356.7,226.0 358.7,226.0 360.7,226.0 362.7,226.0 364.7,226.0 366.8,226.0 368.8,226.0 370.7,226.0 372.8,226.0 374.7,226.0 376.7,226.0 378.6,226.0 380.6,226.0 382.7,226.0 384.7,226.0 386.7,226.0 388.7,226.0 390.7,226.0 392.7,226.0 394.7,226.0 396.7,226.0 398.6,226.0 400.6,226.0 402.7,226.0 404.7,226.0 406.7,210.5 408.7,179.5 410.7,117.5 412.7,102.0 414.7,86.5 416.6,86.5 418.7,86.5 420.6,86.5 422.6,86.5 424.6,86.5 426.6,86.5 428.6,86.5 430.5,86.5 432.6,86.5 434.5,86.5 436.5,86.5 438.5,86.5 440.5,86.5 442.5,71.0 444.5,71.0 446.5,71.0 448.6,71.0 450.6,71.0 452.5,71.0 454.5,86.5 456.5,102.0 458.5,102.0 460.5,102.0 462.5,102.0 464.5,102.0 466.5,102.0 468.4,102.0 470.4,102.0 472.4,102.0 474.4,102.0 476.4,102.0 478.4,86.5 480.4,71.0 482.4,40.0 484.3,40.0 486.3,40.0 488.3,40.0 490.3,40.0 492.2,40.0 494.2,40.0 496.2,40.0 498.2,40.0 500.2,40.0 502.2,40.0 504.2,40.0 506.2,40.0 508.1,40.0 510.1,40.0 512.1,40.0 514.1,40.0 516.2,40.0 518.1,40.0 520.1,40.0 522.1,40.0 524.2,40.0 526.1,40.0 528.1,40.0 530.1,40.0 532.1,40.0 534.1,40.0 536.1,40.0 538.1,40.0 540.1,40.0 542.1,40.0 544.0,40.0 546.0,40.0 548.0,40.0 550.0,40.0 552.0,40.0 553.9,40.0 556.0,40.0 557.9,40.0 559.9,40.0 561.9,40.0 563.9,40.0 565.9,40.0 567.9,40.0 569.9,40.0 571.8,40.0 573.8,40.0 575.8,40.0 577.7,55.5 579.7,71.0 581.7,71.0 583.7,71.0 585.6,71.0 587.6,71.0 589.6,71.0 591.6,71.0 593.5,71.0 595.6,71.0 597.5,71.0 599.5,71.0 601.5,71.0 603.5,71.0 605.5,71.0 607.5,55.5 609.5,40.0 611.5,40.0 613.5,40.0 615.4,40.0 617.5,40.0 619.5,40.0 621.5,40.0 623.5,40.0 625.5,40.0 627.5,40.0 629.5,40.0 631.5,71.0 633.5,71.0 635.5,71.0 637.5,86.5 639.5,86.5 641.5,86.5 643.5,102.0 645.5,102.0 647.5,102.0 649.5,102.0 651.5,102.0 653.5,102.0 655.5,102.0 657.5,71.0 659.5,55.5 661.5,40.0 663.5,40.0 665.5,40.0 667.5,40.0 669.5,40.0 671.4,40.0 673.4,40.0 675.5,40.0 677.4,71.0 679.4,71.0 681.4,71.0 683.4,71.0 685.4,71.0 687.4,71.0 689.4,71.0 691.4,71.0 693.4,71.0 695.4,71.0 697.4,71.0 699.4,71.0 701.3,71.0 703.3,71.0 705.3,71.0 707.3,71.0 709.3,71.0 711.2,71.0 713.2,71.0 715.2,71.0 717.2,71.0 719.2,71.0 721.2,71.0 723.2,71.0 725.2,71.0 727.2,71.0 729.2,71.0 731.2,71.0 733.2,71.0 735.2,71.0 737.2,71.0 739.2,71.0 741.2,71.0 743.1,71.0 745.1,71.0 747.1,71.0 749.1,71.0 751.1,71.0 753.1,71.0 755.1,71.0 757.1,71.0 759.1,71.0 761.1,71.0 763.1,71.0 765.1,71.0 767.1,71.0 769.1,71.0 771.1,71.0 773.1,71.0 775.1,71.0 777.1,71.0 779.1,71.0 781.1,71.0 783.0,71.0 785.0,71.0 787.0,71.0 789.0,71.0 791.0,71.0 793.0,55.5 795.0,40.0 797.0,40.0 799.0,40.0 800.9,40.0 803.0,40.0 805.0,40.0 806.9,40.0 808.9,40.0 811.0,40.0 813.0,40.0 815.0,40.0 816.9,40.0 818.9,40.0 820.9,40.0 822.9,40.0 824.9,40.0 826.9,40.0 828.9,40.0 830.8,40.0 832.8,40.0 834.8,40.0 836.8,40.0 838.7,40.0 840.8,55.5 842.8,71.0 844.7,102.0 846.7,117.5 848.7,117.5 850.7,117.5 852.6,117.5 854.6,117.5 856.7,117.5 858.6,117.5 860.6,117.5 862.6,117.5 864.6,117.5 866.6,117.5 868.6,117.5 870.5,117.5 872.6,148.5 874.5,164.0 876.5,164.0 878.5,164.0 880.5,164.0 882.5,164.0 884.5,164.0 886.4,164.0 888.4,164.0 890.4,164.0 892.4,164.0 894.4,164.0 896.4,164.0 898.4,148.5 900.4,117.5 902.4,117.5 904.4,117.5 906.4,117.5 908.3,117.5 910.3,117.5 912.3,117.5 914.3,117.5 916.3,117.5 918.3,117.5 920.3,117.5 922.3,117.5 924.2,117.5 926.2,117.5 928.2,117.5 930.2,117.5 932.1,117.5 934.1,117.5 936.1,117.5 938.1,117.5 940.1,117.5 942.0,148.5 944.0,164.0 946.0,179.5 948.0,195.0 950.0,195.0" fill="none" stroke="#111111" stroke-width="2"/>
<polyline points="70.0,276.6 72.0,278.6 73.9,278.6 75.9,278.5 77.9,279.0 79.9,279.6 81.9,280.6 83.9,280.2 86.0,280.1 88.0,279.7 89.9,279.0 91.9,277.9 93.9,277.0 95.9,275.9 97.8,275.3 99.8,274.7 101.8,274.2 103.8,274.4 105.8,274.2 107.8,274.2 109.8,274.4 111.8,274.8 113.8,275.3 115.9,275.7 117.9,275.7 119.9,275.6 121.8,275.1 123.9,274.7 125.9,274.6 127.8,274.7 129.8,274.7 131.8,274.8 133.8,275.1 135.8,275.2 137.8,275.3 139.8,275.4 141.8,275.5 143.8,275.5 145.8,275.4 147.8,275.2 149.7,274.9 151.7,274.7 153.7,274.5 155.7,274.1 157.7,273.3 159.8,271.5 161.7,269.3 163.7,266.5 165.7,263.3 167.6,260.1 169.6,257.7 171.6,256.5 173.6,257.5 175.6,259.7 177.6,263.8 179.5,268.4 181.5,272.3 183.5,274.9 185.5,277.0 187.5,278.4 189.4,279.6 191.4,280.3 193.5,280.7 195.5,280.7 197.5,280.7 199.5,280.4 201.5,280.1 203.5,279.8 205.5,279.6 207.5,279.4 209.5,279.0 211.5,278.2 213.5,277.0 215.5,275.7 217.5,274.1 219.5,271.8 221.5,269.2 223.4,266.0 225.4,262.0 227.4,258.6 229.5,256.5 231.5,256.7 233.4,259.8 235.4,264.8 237.4,270.0 239.4,274.3 241.4,276.7 243.4,277.9 245.4,278.6 247.4,279.0 249.4,279.3 251.4,279.5 253.3,279.7 255.3,279.7 257.3,279.7 259.3,279.4 261.3,279.2 263.3,278.6 265.3,277.8 267.3,276.7 269.3,275.5 271.3,274.5 273.3,273.8 275.3,273.3 277.3,272.9 279.2,273.1 281.3,273.3 283.2,273.7 285.2,274.2 287.2,274.7 289.2,275.0 291.1,275.2 293.2,275.3 295.2,277.2 297.2,276.5 299.1,273.1 301.1,267.6 303.1,259.4 305.1,248.4 307.0,238.9 309.0,233.5 311.0,232.5 313.0,234.8 315.0,240.4 317.0,249.5 318.9,261.6 320.9,262.0 322.9,258.3 324.9,257.4 326.9,259.9 328.9,263.1 330.9,267.3 332.9,278.8 334.8,279.0 336.9,278.8 338.8,278.0 340.8,276.8 342.7,276.0 344.7,275.6 346.7,275.8 348.7,275.2 350.7,275.9 352.7,275.3 354.7,275.8 356.7,275.5 358.7,276.0 360.7,277.0 362.7,276.1 364.7,276.5 366.8,275.7 368.8,275.8 370.7,275.5 372.8,273.1 374.7,273.2 376.7,270.3 378.6,270.2 380.6,270.6 382.7,271.3 384.7,272.8 386.7,274.1 388.7,275.2 390.7,276.1 392.7,276.7 394.7,277.3 396.7,277.8 398.6,278.1 400.6,274.1 402.7,271.7 404.7,271.3 406.7,266.1 408.7,262.3 410.7,264.8 412.7,268.5 414.7,265.7 416.6,252.9 418.7,237.0 420.6,222.1 422.6,212.4 424.6,204.9 426.6,200.6 428.6,198.6 430.5,197.6 432.6,196.7 434.5,196.4 436.5,197.3 438.5,197.3 440.5,196.5 442.5,195.7 444.5,194.2 446.5,193.0 448.6,194.3 450.6,195.3 452.5,196.3 454.5,196.0 456.5,197.0 458.5,196.9 460.5,197.1 462.5,196.6 464.5,196.9 466.5,196.9 468.4,197.6 470.4,198.2 472.4,197.0 474.4,195.7 476.4,194.6 478.4,194.1 480.4,193.8 482.4,195.4 484.3,196.1 486.3,197.9 488.3,199.3 490.3,198.1 492.2,195.6 494.2,199.7 496.2,202.2 498.2,199.8 500.2,199.8 502.2,197.7 504.2,195.7 506.2,194.9 508.1,196.0 510.1,196.9 512.1,197.0 514.1,197.7 516.2,197.7 518.1,197.6 520.1,197.2 522.1,196.1 524.2,194.3 526.1,195.1 528.1,196.5 530.1,196.5 532.1,195.4 534.1,194.9 536.1,195.1 538.1,195.0 540.1,199.7 542.1,197.0 544.0,199.5 546.0,198.0 548.0,199.0 550.0,201.5 552.0,201.0 553.9,200.3 556.0,199.5 557.9,198.9 559.9,199.2 561.9,200.4 563.9,200.1 565.9,199.2 567.9,198.3 569.9,198.2 571.8,200.0 573.8,205.6 575.8,212.4 577.7,230.6 579.7,241.9 581.7,221.3 583.7,218.1 585.6,213.2 587.6,207.3 589.6,202.2 591.6,198.5 593.5,196.4 595.6,198.1 597.5,196.8 599.5,195.5 601.5,197.5 603.5,197.0 605.5,196.5 607.5,196.7 609.5,196.4 611.5,196.0 613.5,195.2 615.4,194.6 617.5,194.9 619.5,195.1 621.5,188.0 623.5,187.1 625.5,187.0 627.5,186.9 629.5,186.6 631.5,193.4 633.5,199.3 635.5,187.9 637.5,187.1 639.5,187.2 641.5,194.1 643.5,195.5 645.5,195.0 647.5,194.5 649.5,194.7 651.5,194.4 653.5,194.4 655.5,195.5 657.5,194.9 659.5,194.2 661.5,192.6 663.5,192.7 665.5,192.6 667.5,193.4 669.5,193.0 671.4,192.8 673.4,186.7 675.5,192.6 677.4,193.7 679.4,197.4 681.4,198.0 683.4,197.1 685.4,196.8 687.4,197.8 689.4,200.0 691.4,203.7 693.4,195.0 695.4,207.5 697.4,216.1 699.4,218.9 701.3,221.0 703.3,212.6 705.3,207.9 707.3,202.4 709.3,200.9 711.2,201.2 713.2,209.9 715.2,208.6 717.2,207.4 719.2,204.6 721.2,204.6 723.2,190.3 725.2,186.1 727.2,191.1 729.2,193.7 731.2,193.3 733.2,196.9 735.2,195.6 737.2,197.1 739.2,195.4 741.2,196.7 743.1,195.1 745.1,195.9 747.1,187.9 749.1,187.3 751.1,187.3 753.1,187.5 755.1,187.6 757.1,187.6 759.1,196.1 761.1,194.3 763.1,194.8 765.1,193.8 767.1,193.8 769.1,193.8 771.1,193.8 773.1,193.7 775.1,193.7 777.1,193.9 779.1,194.0 781.1,194.5 783.0,194.9 785.0,195.1 787.0,187.9 789.0,194.0 791.0,195.9 793.0,198.6 795.0,201.1 797.0,203.1 799.0,214.4 800.9,208.0 803.0,204.6 805.0,205.7 806.9,204.4 808.9,202.5 811.0,200.9 813.0,200.1 815.0,199.9 816.9,200.5 818.9,199.3 820.9,196.6 822.9,195.8 824.9,195.5 826.9,202.5 828.9,202.8 830.8,193.9 832.8,190.2 834.8,196.3 836.8,195.4 838.7,195.2 840.8,195.1 842.8,202.6 844.7,205.0 846.7,201.4 848.7,203.3 850.7,201.8 852.6,199.5 854.6,204.2 856.7,201.6 858.6,199.7 860.6,202.5 862.6,191.5 864.6,188.6 866.6,187.7 868.6,186.7 870.5,191.4 872.6,186.6 874.5,185.8 876.5,192.1 878.5,193.1 880.5,193.5 882.5,193.7 884.5,193.5 886.4,193.3 888.4,193.2 890.4,193.4 892.4,193.7 894.4,194.3 896.4,195.0 898.4,195.2 900.4,194.8 902.4,194.3 904.4,193.8 906.4,193.8 908.3,193.8 910.3,195.0 912.3,198.2 914.3,218.5 916.3,211.4 918.3,210.2 920.3,208.3 922.3,203.4 924.2,200.9 926.2,200.8 928.2,191.0 930.2,188.5 932.1,187.5 934.1,187.1 936.1,187.1 938.1,187.0 940.1,186.5 942.0,185.9 944.0,185.6 946.0,185.4 948.0,185.2 950.0,185.1" fill="none" stroke="#1f77b4" stroke-width="2" stroke-dasharray="6 4"/>
<line x1="80" y1="58" x2="108" y2="58" stroke="#111111" stroke-width="2"/>
<text x="116" y="62" font-size="12" font-family="Arial">Ground Truth</text>
<line x1="80" y1="76" x2="108" y2="76" stroke="#1f77b4" stroke-width="2"/>
<text x="116" y="80" font-size="12" font-family="Arial">Prediction</text>
<text x="70" y="382" font-size="12" font-family="Arial">横轴：session时间秒；纵轴：FMS 0-20；橙色竖线：FMS update事件；未对预测做额外平滑。</text>
<text x="70" y="402" font-size="12" font-family="Arial">session MAE=6.437; RMSE=7.152; R2=-1.028; Pearson r=0.834; DTW=6.275; bias=-6.349</text>
</svg>